<?xml version="1.0" encoding="UTF-8" standalone="no" ?>
<!DOCTYPE svg PUBLIC "-//W3C//DTD SVG 1.1//EN" "http://www.w3.org/Graphics/SVG/1.1/DTD/svg11.dtd">
<svg xmlns="http://www.w3.org/2000/svg" xmlns:xlink="http://www.w3.org/1999/xlink" version="1.1" width="1280" height="1024" viewBox="0 0 1280 1024" xml:space="preserve">
<desc>Created with Fabric.js 5.3.0</desc>
<defs>
</defs>
<g transform="matrix(1 0 0 1 640 512)" id="background-logo"  >
<rect style="stroke: none; stroke-width: 0; stroke-dasharray: none; stroke-linecap: butt; stroke-dashoffset: 0; stroke-linejoin: miter; stroke-miterlimit: 4; fill: rgb(0,0,0); fill-rule: nonzero; opacity: 1;"  paint-order="stroke"  x="-640" y="-512" rx="0" ry="0" width="1280" height="1024" />
</g>
<g transform="matrix(1.9211538461538462 0 0 1.9211538461538462 639.7730370774264 420.90132263536645)" id="logo-logo"  >
<g style=""  paint-order="stroke"   >
		<g transform="matrix(1.0576801530245927 0 0 -1.0576801530245927 0 -44.59285423063332)"  >
<linearGradient id="SVGID_427_251758" gradientUnits="userSpaceOnUse" gradientTransform="matrix(1 0 0 1 119.126 128.915)"  x1="0" y1="0" x2="0" y2="87">
<stop offset="0%" style="stop-color:rgb(245,81,95);stop-opacity: 1"/>
<stop offset="100%" style="stop-color:rgb(159,4,27);stop-opacity: 1"/>
</linearGradient>
<path style="stroke: none; stroke-width: 1; stroke-dasharray: none; stroke-linecap: butt; stroke-dashoffset: 0; stroke-linejoin: miter; stroke-miterlimit: 4; fill: url(#SVGID_427_251758); fill-rule: nonzero; opacity: 1;"  paint-order="stroke"  transform=" translate(-162.5, -172.28549999999998)" d="M 162.498 194.35 L 184.56099999999998 172.28799999999998 L 162.498 150.231 L 140.438 172.28799999999998 z M 205.874 172.28799999999998 L 162.498 215.65599999999998 L 119.12599999999999 172.28799999999998 L 162.498 128.915 z" stroke-linecap="round" />
</g>
		<g transform="matrix(1.0576801530245927 0 0 -1.0576801530245927 -57.11472969119626 59.32422340195984)"  >
<linearGradient id="SVGID_428_251759" gradientUnits="userSpaceOnUse" gradientTransform="matrix(1 0 0 1 71.088 44.34399999999999)"  x1="0" y1="0" x2="0" y2="59">
<stop offset="0%" style="stop-color:rgb(245,81,95);stop-opacity: 1"/>
<stop offset="100%" style="stop-color:rgb(159,4,27);stop-opacity: 1"/>
</linearGradient>
<path style="stroke: none; stroke-width: 1; stroke-dasharray: none; stroke-linecap: butt; stroke-dashoffset: 0; stroke-linejoin: miter; stroke-miterlimit: 4; fill: url(#SVGID_428_251759); fill-rule: nonzero; opacity: 1;"  paint-order="stroke"  transform=" translate(-108.58449999999999, -73.78649999999999)" d="M 130.663 59.051 L 108.58500000000001 59.051 L 86.50500000000001 59.051 L 86.50500000000001 103.229 L 71.088 87.809 L 71.088 47.233999999999995 L 71.088 44.343999999999994 L 86.505 44.343999999999994 L 108.585 44.343999999999994 L 130.66299999999998 44.343999999999994 L 146.081 44.343999999999994 L 146.081 47.233999999999995 L 146.081 87.809 L 130.66299999999998 103.229 z" stroke-linecap="round" />
</g>
		<g transform="matrix(1.0576801530245927 0 0 -1.0576801530245927 57.11472969119626 59.32422340195984)"  >
<linearGradient id="SVGID_429_251760" gradientUnits="userSpaceOnUse" gradientTransform="matrix(1 0 0 1 178.92 44.34399999999999)"  x1="0" y1="0" x2="0" y2="59">
<stop offset="0%" style="stop-color:rgb(245,81,95);stop-opacity: 1"/>
<stop offset="100%" style="stop-color:rgb(159,4,27);stop-opacity: 1"/>
</linearGradient>
<path style="stroke: none; stroke-width: 1; stroke-dasharray: none; stroke-linecap: butt; stroke-dashoffset: 0; stroke-linejoin: miter; stroke-miterlimit: 4; fill: url(#SVGID_429_251760); fill-rule: nonzero; opacity: 1;"  paint-order="stroke"  transform=" translate(-216.41549999999998, -73.78649999999999)" d="M 238.491 59.051 L 216.41400000000002 59.051 L 194.336 59.051 L 194.336 103.229 L 178.92 87.809 L 178.92 47.233999999999995 L 178.92 44.343999999999994 L 194.33599999999998 44.343999999999994 L 216.414 44.343999999999994 L 238.49099999999999 44.343999999999994 L 253.91099999999997 44.343999999999994 L 253.91099999999997 47.233999999999995 L 253.91099999999997 87.809 L 238.49099999999999 103.229 z" stroke-linecap="round" />
</g>
		<g transform="matrix(1.0576801530245927 0 0 -1.0576801530245927 0 6.175794383763332)"  >
<path style="stroke: none; stroke-width: 1; stroke-dasharray: none; stroke-linecap: butt; stroke-dashoffset: 0; stroke-linejoin: miter; stroke-miterlimit: 4; fill: rgb(165,166,165); fill-rule: nonzero; opacity: 1;"  paint-order="stroke"  transform=" translate(-162.49999999999997, -123.89250000000001)" d="M 162.498 106.884 L 108.10799999999999 161.274 L 47.08699999999999 100.82900000000001 L 69.38999999999999 100.81200000000001 C 82.41299999999998 114.14100000000002 95.38699999999999 127.24700000000001 108.58499999999998 140.431 L 108.58499999999998 140.431 L 162.498 86.51100000000001 L 216.414 140.431 C 229.613 127.24700000000001 242.587 114.14100000000002 255.60899999999998 100.81200000000001 L 255.60899999999998 100.81200000000001 L 277.91299999999995 100.82900000000001 L 216.89199999999994 161.274 z" stroke-linecap="round" />
</g>
</g>
</g>
<g transform="matrix(1.9208612451177594 0.033528757751627364 -0.033528757751627364 1.9208612451177594 639.2088646991573 708.2271272270867)" id="tagline-2f802e51-0ec6-4af3-805b-e862746071ab-logo"  >
<g style=""  paint-order="stroke"   >
		<g transform="matrix(1 0 0 1 0 0)" id="tagline-2f802e51-0ec6-4af3-805b-e862746071ab-logo-path-0"  >
<linearGradient id="SVGID_251761" gradientUnits="userSpaceOnUse" gradientTransform="matrix(1 0 0 1 0.10999999999999943 -24.5)"  x1="-0.13999946594242374" y1="-6.26989999999995" x2="-0.13999946594242374" y2="33.73010000000005">
<stop offset="0%" style="stop-color:rgb(245,81,95);stop-opacity: 1"/>
<stop offset="100%" style="stop-color:rgb(159,4,27);stop-opacity: 1"/>
</linearGradient>
<path style="stroke: none; stroke-width: 0; stroke-dasharray: none; stroke-linecap: butt; stroke-dashoffset: 0; stroke-linejoin: miter; stroke-miterlimit: 4; fill: url(#SVGID_251761); fill-rule: nonzero; opacity: 1;"  paint-order="stroke"  transform=" translate(-28.509999999999998, 12.25)" d="M 16.21 0 L 22.51 0 L 14.46 -24.5 L 8.16 -24.5 L 0.11 0 L 6.41 0 L 7.56 -4.03 L 15.05 -4.03 Z M 9.07 -9.28 L 11.31 -17.15 L 13.55 -9.28 Z M 38.05 0 L 49.35 0 C 53.48 0 56.91 -3.43 56.91 -7.63 C 56.91 -10.05 55.65 -11.83 53.8 -12.88 C 55.34 -13.97 55.93 -15.61 55.93 -17.64 C 55.93 -21.56 52.64 -24.5 48.72 -24.5 L 38.05 -24.5 Z M 43.65 -5.25 L 43.65 -9.98 L 48.65 -9.98 C 50.12 -9.98 50.96 -9.1 50.96 -7.63 C 50.96 -6.09 50.09 -5.25 48.65 -5.25 Z M 43.65 -15.23 L 43.65 -19.25 L 48.02 -19.25 C 49.35 -19.25 49.98 -18.59 49.98 -17.29 C 49.98 -15.86 49.35 -15.23 48.02 -15.23 Z" stroke-linecap="round" />
</g>
</g>
</g>
<g transform="matrix(1.9211538461538462 0 0 1.9211538461538462 657.3336916529998 637.0766835440488)" id="tagline-3f8d9655-6ad2-49cb-8a7e-f917fc4a02a1-logo"  >
<g style=""  paint-order="stroke"   >
		<g transform="matrix(1 0 0 1 0 0)" id="tagline-3f8d9655-6ad2-49cb-8a7e-f917fc4a02a1-logo-path-0"  >
<path style="stroke: none; stroke-width: 0; stroke-dasharray: none; stroke-linecap: butt; stroke-dashoffset: 0; stroke-linejoin: miter; stroke-miterlimit: 4; fill: rgb(165,166,165); fill-rule: nonzero; opacity: 1;"  paint-order="stroke"  transform=" translate(-199.955, 9.240000000000002)" d="M 17.15 0 L 2.52 0 L 2.52 -22.75 L 8.54 -22.75 L 8.54 -5.04 L 17.15 -5.04 L 17.15 0 Z M 26.6 0 L 20.58 0 L 20.58 -17.5 L 26.6 -17.5 L 26.6 0 Z M 23.59 -19.67 L 23.59 -19.67 C 22.61 -19.67 21.8 -19.95 21.21 -20.51 C 20.62 -21.04 20.3 -21.77 20.3 -22.68 L 20.3 -22.68 C 20.3 -23.59 20.62 -24.33 21.21 -24.89 C 21.8 -25.41 22.61 -25.69 23.59 -25.69 L 23.59 -25.69 C 24.57 -25.69 25.38 -25.41 25.97 -24.89 C 26.57 -24.33 26.88 -23.59 26.88 -22.68 L 26.88 -22.68 C 26.88 -21.77 26.57 -21.04 25.97 -20.51 C 25.38 -19.95 24.57 -19.67 23.59 -19.67 Z M 36.05 0.42 L 36.05 0.42 C 34.69 0.42 33.64 0.14 32.87 -0.42 C 32.06 -0.95 31.5 -1.72 31.19 -2.73 C 30.84 -3.71 30.66 -4.87 30.66 -6.16 L 30.66 -6.16 L 30.66 -24.36 L 36.68 -24.36 L 36.68 -5.95 C 36.68 -5.36 36.79 -4.97 37.03 -4.76 C 37.24 -4.52 37.45 -4.41 37.66 -4.41 L 37.66 -4.41 C 37.77 -4.41 37.87 -4.41 37.98 -4.45 C 38.05 -4.45 38.15 -4.45 38.29 -4.48 L 38.29 -4.48 L 38.99 -0.07 C 38.68 0.07 38.29 0.18 37.8 0.28 C 37.31 0.39 36.72 0.42 36.05 0.42 Z M 47.11 0 L 41.09 0 L 41.09 -17.5 L 47.11 -17.5 L 47.11 0 Z M 44.1 -19.67 L 44.1 -19.67 C 43.12 -19.67 42.32 -19.95 41.72 -20.51 C 41.13 -21.04 40.81 -21.77 40.81 -22.68 L 40.81 -22.68 C 40.81 -23.59 41.13 -24.33 41.72 -24.89 C 42.32 -25.41 43.12 -25.69 44.1 -25.69 L 44.1 -25.69 C 45.08 -25.69 45.89 -25.41 46.48 -24.89 C 47.08 -24.33 47.39 -23.59 47.39 -22.68 L 47.39 -22.68 C 47.39 -21.77 47.08 -21.04 46.48 -20.51 C 45.89 -19.95 45.08 -19.67 44.1 -19.67 Z M 55.72 0.42 L 55.72 0.42 C 54.63 0.42 53.69 0.18 52.92 -0.35 C 52.12 -0.84 51.52 -1.51 51.1 -2.31 C 50.68 -3.12 50.47 -4.03 50.47 -4.97 L 50.47 -4.97 C 50.47 -6.79 51.2 -8.23 52.71 -9.28 C 54.22 -10.29 56.63 -10.99 59.99 -11.34 L 59.99 -11.34 C 59.85 -12.57 59.05 -13.16 57.54 -13.16 L 57.54 -13.16 C 56.91 -13.16 56.25 -13.06 55.55 -12.81 C 54.84 -12.57 54.04 -12.18 53.13 -11.69 L 53.13 -11.69 L 51.03 -15.61 C 52.26 -16.35 53.52 -16.94 54.81 -17.33 C 56.07 -17.71 57.37 -17.92 58.73 -17.92 L 58.73 -17.92 C 61.01 -17.92 62.79 -17.29 64.09 -16 C 65.38 -14.7 66.01 -12.6 66.01 -9.73 L 66.01 -9.73 L 66.01 0 L 61.11 0 L 60.69 -1.68 L 60.55 -1.68 C 59.85 -1.05 59.12 -0.56 58.34 -0.18 C 57.54 0.21 56.66 0.42 55.72 0.42 Z M 57.82 -4.2 L 57.82 -4.2 C 58.31 -4.2 58.73 -4.31 59.05 -4.55 C 59.36 -4.76 59.67 -5.04 59.99 -5.39 L 59.99 -5.39 L 59.99 -7.77 C 58.55 -7.56 57.58 -7.25 57.05 -6.83 C 56.49 -6.41 56.21 -5.95 56.21 -5.46 L 56.21 -5.46 C 56.21 -4.62 56.73 -4.2 57.82 -4.2 Z M 75.95 0 L 69.93 0 L 69.93 -17.5 L 74.83 -17.5 L 75.25 -15.4 L 75.39 -15.4 C 76.09 -16.07 76.9 -16.66 77.81 -17.19 C 78.68 -17.68 79.73 -17.92 80.92 -17.92 L 80.92 -17.92 C 82.85 -17.92 84.25 -17.29 85.12 -16 C 85.96 -14.7 86.38 -12.95 86.38 -10.78 L 86.38 -10.78 L 86.38 0 L 80.36 0 L 80.36 -10.01 C 80.36 -11.13 80.22 -11.87 79.94 -12.25 C 79.66 -12.64 79.21 -12.81 78.61 -12.81 L 78.61 -12.81 C 78.05 -12.81 77.59 -12.71 77.21 -12.46 C 76.83 -12.22 76.41 -11.9 75.95 -11.48 L 75.95 -11.48 L 75.95 0 Z M 106.68 0 L 97.79 0 L 97.79 -22.75 L 105.98 -22.75 C 107.56 -22.75 109.03 -22.58 110.32 -22.26 C 111.62 -21.95 112.67 -21.35 113.44 -20.55 C 114.21 -19.74 114.59 -18.59 114.59 -17.08 L 114.59 -17.08 C 114.59 -16.1 114.35 -15.12 113.82 -14.18 C 113.3 -13.2 112.6 -12.53 111.72 -12.18 L 111.72 -12.18 L 111.72 -12.04 C 112.81 -11.73 113.75 -11.17 114.52 -10.29 C 115.26 -9.42 115.64 -8.23 115.64 -6.72 L 115.64 -6.72 C 115.64 -5.15 115.22 -3.89 114.42 -2.91 C 113.61 -1.89 112.53 -1.16 111.16 -0.7 C 109.8 -0.25 108.33 0 106.68 0 L 106.68 0 Z M 103.81 -18.13 L 103.81 -13.86 L 105.84 -13.86 C 106.82 -13.86 107.56 -14.07 108.01 -14.49 C 108.47 -14.91 108.71 -15.47 108.71 -16.17 L 108.71 -16.17 C 108.71 -16.87 108.47 -17.36 108.01 -17.68 C 107.56 -17.99 106.82 -18.13 105.84 -18.13 L 105.84 -18.13 L 103.81 -18.13 Z M 103.81 -9.45 L 103.81 -4.62 L 106.26 -4.62 C 108.61 -4.62 109.76 -5.46 109.76 -7.14 L 109.76 -7.14 C 109.76 -7.98 109.48 -8.58 108.92 -8.93 C 108.33 -9.28 107.45 -9.45 106.26 -9.45 L 106.26 -9.45 L 103.81 -9.45 Z M 121.31 6.58 L 121.31 6.58 C 120.72 6.58 120.23 6.55 119.84 6.48 C 119.46 6.41 119.04 6.34 118.65 6.23 L 118.65 6.23 L 119.7 1.68 C 119.88 1.72 120.05 1.75 120.26 1.79 C 120.47 1.86 120.65 1.89 120.82 1.89 L 120.82 1.89 C 121.63 1.89 122.26 1.72 122.68 1.4 C 123.1 1.09 123.38 0.67 123.55 0.14 L 123.55 0.14 L 123.76 -0.63 L 117.11 -17.5 L 123.13 -17.5 L 125.23 -10.78 C 125.48 -9.98 125.72 -9.17 125.9 -8.37 C 126.07 -7.56 126.28 -6.69 126.49 -5.81 L 126.49 -5.81 L 126.63 -5.81 C 126.81 -6.65 127.02 -7.49 127.19 -8.29 C 127.37 -9.1 127.54 -9.94 127.75 -10.78 L 127.75 -10.78 L 129.5 -17.5 L 135.24 -17.5 L 129.36 -0.28 C 128.77 1.3 128.1 2.56 127.44 3.57 C 126.74 4.59 125.9 5.36 124.95 5.85 C 123.97 6.34 122.75 6.58 121.31 6.58 Z M 144.06 7.21 L 144.06 7.21 C 142.73 7.21 141.51 7.07 140.39 6.76 C 139.27 6.48 138.39 6.02 137.73 5.39 C 137.06 4.76 136.71 3.92 136.71 2.87 L 136.71 2.87 C 136.71 1.51 137.52 0.39 139.16 -0.49 L 139.16 -0.49 L 139.16 -0.63 C 138.71 -0.95 138.36 -1.37 138.04 -1.86 C 137.73 -2.31 137.55 -2.91 137.55 -3.64 L 137.55 -3.64 C 137.55 -4.24 137.73 -4.83 138.11 -5.43 C 138.46 -6.02 138.92 -6.51 139.51 -6.93 L 139.51 -6.93 L 139.51 -7.07 C 138.88 -7.49 138.32 -8.09 137.87 -8.89 C 137.38 -9.66 137.13 -10.54 137.13 -11.55 L 137.13 -11.55 C 137.13 -12.99 137.48 -14.21 138.22 -15.16 C 138.92 -16.1 139.83 -16.8 140.98 -17.26 C 142.14 -17.71 143.33 -17.92 144.62 -17.92 L 144.62 -17.92 C 145.64 -17.92 146.58 -17.78 147.42 -17.5 L 147.42 -17.5 L 153.93 -17.5 L 153.93 -13.16 L 151.41 -13.16 C 151.48 -12.95 151.55 -12.67 151.62 -12.36 C 151.66 -12.04 151.69 -11.69 151.69 -11.34 L 151.69 -11.34 C 151.69 -9.98 151.38 -8.86 150.75 -8.02 C 150.12 -7.14 149.28 -6.51 148.19 -6.13 C 147.11 -5.74 145.92 -5.53 144.62 -5.53 L 144.62 -5.53 C 144.03 -5.53 143.4 -5.6 142.66 -5.78 L 142.66 -5.78 C 142.38 -5.53 142.24 -5.18 142.24 -4.76 L 142.24 -4.76 C 142.24 -4.38 142.45 -4.13 142.84 -3.96 C 143.22 -3.78 143.82 -3.71 144.69 -3.71 L 144.69 -3.71 L 147.32 -3.71 C 149.52 -3.71 151.2 -3.36 152.43 -2.66 C 153.62 -1.93 154.21 -0.77 154.21 0.84 L 154.21 0.84 C 154.21 2.1 153.79 3.22 152.99 4.17 C 152.15 5.11 150.96 5.88 149.45 6.41 C 147.95 6.93 146.13 7.21 144.06 7.21 Z M 144.62 -9.1 L 144.62 -9.1 C 145.18 -9.1 145.64 -9.31 145.99 -9.7 C 146.34 -10.08 146.51 -10.71 146.51 -11.55 L 146.51 -11.55 C 146.51 -12.36 146.34 -12.99 145.99 -13.37 C 145.64 -13.76 145.18 -13.93 144.62 -13.93 L 144.62 -13.93 C 144.06 -13.93 143.61 -13.76 143.26 -13.37 C 142.91 -12.99 142.73 -12.36 142.73 -11.55 L 142.73 -11.55 C 142.73 -10.71 142.91 -10.08 143.26 -9.7 C 143.61 -9.31 144.06 -9.1 144.62 -9.1 Z M 145.04 3.5 L 145.04 3.5 C 146.02 3.5 146.83 3.36 147.49 3.05 C 148.16 2.77 148.47 2.38 148.47 1.89 L 148.47 1.89 C 148.47 1.44 148.26 1.12 147.88 1.02 C 147.46 0.91 146.86 0.84 146.13 0.84 L 146.13 0.84 L 144.76 0.84 C 144.06 0.84 143.54 0.81 143.19 0.77 C 142.8 0.74 142.49 0.7 142.24 0.63 L 142.24 0.63 C 141.82 1.05 141.61 1.47 141.61 1.89 L 141.61 1.89 C 141.61 2.45 141.93 2.87 142.59 3.12 C 143.22 3.36 144.03 3.5 145.04 3.5 Z M 163.17 7.21 L 163.17 7.21 C 161.84 7.21 160.62 7.07 159.5 6.76 C 158.38 6.48 157.5 6.02 156.84 5.39 C 156.17 4.76 155.82 3.92 155.82 2.87 L 155.82 2.87 C 155.82 1.51 156.63 0.39 158.27 -0.49 L 158.27 -0.49 L 158.27 -0.63 C 157.82 -0.95 157.47 -1.37 157.15 -1.86 C 156.84 -2.31 156.66 -2.91 156.66 -3.64 L 156.66 -3.64 C 156.66 -4.24 156.84 -4.83 157.22 -5.43 C 157.57 -6.02 158.03 -6.51 158.62 -6.93 L 158.62 -6.93 L 158.62 -7.07 C 157.99 -7.49 157.43 -8.09 156.98 -8.89 C 156.49 -9.66 156.24 -10.54 156.24 -11.55 L 156.24 -11.55 C 156.24 -12.99 156.59 -14.21 157.33 -15.16 C 158.03 -16.1 158.94 -16.8 160.09 -17.26 C 161.25 -17.71 162.44 -17.92 163.73 -17.92 L 163.73 -17.92 C 164.75 -17.92 165.69 -17.78 166.53 -17.5 L 166.53 -17.5 L 173.04 -17.5 L 173.04 -13.16 L 170.52 -13.16 C 170.59 -12.95 170.66 -12.67 170.73 -12.36 C 170.77 -12.04 170.8 -11.69 170.8 -11.34 L 170.8 -11.34 C 170.8 -9.98 170.49 -8.86 169.86 -8.02 C 169.23 -7.14 168.39 -6.51 167.3 -6.13 C 166.22 -5.74 165.03 -5.53 163.73 -5.53 L 163.73 -5.53 C 163.14 -5.53 162.51 -5.6 161.77 -5.78 L 161.77 -5.78 C 161.49 -5.53 161.35 -5.18 161.35 -4.76 L 161.35 -4.76 C 161.35 -4.38 161.56 -4.13 161.95 -3.96 C 162.33 -3.78 162.93 -3.71 163.8 -3.71 L 163.8 -3.71 L 166.43 -3.71 C 168.63 -3.71 170.31 -3.36 171.54 -2.66 C 172.73 -1.93 173.32 -0.77 173.32 0.84 L 173.32 0.84 C 173.32 2.1 172.9 3.22 172.1 4.17 C 171.26 5.11 170.07 5.88 168.56 6.41 C 167.06 6.93 165.24 7.21 163.17 7.21 Z M 163.73 -9.1 L 163.73 -9.1 C 164.29 -9.1 164.75 -9.31 165.1 -9.7 C 165.45 -10.08 165.62 -10.71 165.62 -11.55 L 165.62 -11.55 C 165.62 -12.36 165.45 -12.99 165.1 -13.37 C 164.75 -13.76 164.29 -13.93 163.73 -13.93 L 163.73 -13.93 C 163.17 -13.93 162.72 -13.76 162.37 -13.37 C 162.02 -12.99 161.84 -12.36 161.84 -11.55 L 161.84 -11.55 C 161.84 -10.71 162.02 -10.08 162.37 -9.7 C 162.72 -9.31 163.17 -9.1 163.73 -9.1 Z M 164.15 3.5 L 164.15 3.5 C 165.13 3.5 165.94 3.36 166.6 3.05 C 167.27 2.77 167.58 2.38 167.58 1.89 L 167.58 1.89 C 167.58 1.44 167.37 1.12 166.99 1.02 C 166.57 0.91 165.97 0.84 165.24 0.84 L 165.24 0.84 L 163.87 0.84 C 163.17 0.84 162.65 0.81 162.3 0.77 C 161.91 0.74 161.6 0.7 161.35 0.63 L 161.35 0.63 C 160.93 1.05 160.72 1.47 160.72 1.89 L 160.72 1.89 C 160.72 2.45 161.04 2.87 161.7 3.12 C 162.33 3.36 163.14 3.5 164.15 3.5 Z M 191.24 -6.79 L 182.42 -6.79 L 182.42 -10.99 L 191.24 -10.99 L 191.24 -6.79 Z M 217.35 0 L 202.3 0 L 202.3 -22.75 L 217 -22.75 L 217 -17.71 L 208.32 -17.71 L 208.32 -14.14 L 215.74 -14.14 L 215.74 -9.1 L 208.32 -9.1 L 208.32 -5.04 L 217.35 -5.04 L 217.35 0 Z M 227.29 0 L 221.27 0 L 221.27 -17.5 L 226.17 -17.5 L 226.59 -15.4 L 226.73 -15.4 C 227.43 -16.07 228.24 -16.66 229.15 -17.19 C 230.02 -17.68 231.07 -17.92 232.26 -17.92 L 232.26 -17.92 C 234.19 -17.92 235.59 -17.29 236.46 -16 C 237.3 -14.7 237.72 -12.95 237.72 -10.78 L 237.72 -10.78 L 237.72 0 L 231.7 0 L 231.7 -10.01 C 231.7 -11.13 231.56 -11.87 231.28 -12.25 C 231 -12.64 230.55 -12.81 229.95 -12.81 L 229.95 -12.81 C 229.39 -12.81 228.94 -12.71 228.55 -12.46 C 228.17 -12.22 227.75 -11.9 227.29 -11.48 L 227.29 -11.48 L 227.29 0 Z M 248.85 0.42 L 248.85 0.42 C 246.58 0.42 244.97 -0.25 243.95 -1.58 C 242.94 -2.87 242.41 -4.59 242.41 -6.72 L 242.41 -6.72 L 242.41 -12.81 L 240.1 -12.81 L 240.1 -17.29 L 242.76 -17.5 L 243.46 -22.05 L 248.43 -22.05 L 248.43 -17.5 L 252.42 -17.5 L 252.42 -12.81 L 248.43 -12.81 L 248.43 -6.83 C 248.43 -5.88 248.64 -5.22 249.06 -4.83 C 249.48 -4.45 249.97 -4.27 250.53 -4.27 L 250.53 -4.27 C 250.81 -4.27 251.09 -4.31 251.37 -4.38 C 251.62 -4.41 251.86 -4.48 252.07 -4.55 L 252.07 -4.55 L 252.98 -0.21 C 252.53 -0.07 251.97 0.07 251.3 0.21 C 250.64 0.35 249.8 0.42 248.85 0.42 Z M 261.66 0 L 255.64 0 L 255.64 -17.5 L 260.54 -17.5 L 260.96 -14.49 L 261.1 -14.49 C 261.77 -15.68 262.54 -16.56 263.45 -17.12 C 264.32 -17.64 265.2 -17.92 266.07 -17.92 L 266.07 -17.92 C 266.6 -17.92 267.05 -17.89 267.4 -17.85 C 267.72 -17.78 268 -17.68 268.24 -17.57 L 268.24 -17.57 L 267.26 -12.39 C 266.95 -12.46 266.67 -12.53 266.35 -12.6 C 266.04 -12.64 265.69 -12.67 265.3 -12.67 L 265.3 -12.67 C 264.67 -12.67 264.01 -12.46 263.34 -12.04 C 262.64 -11.59 262.08 -10.82 261.66 -9.73 L 261.66 -9.73 L 261.66 0 Z M 278.39 0.42 L 278.39 0.42 C 276.68 0.42 275.17 0.07 273.81 -0.67 C 272.44 -1.4 271.36 -2.45 270.55 -3.82 C 269.75 -5.18 269.36 -6.83 269.36 -8.75 L 269.36 -8.75 C 269.36 -10.64 269.78 -12.29 270.59 -13.65 C 271.39 -15.02 272.41 -16.07 273.7 -16.8 C 275 -17.54 276.33 -17.92 277.76 -17.92 L 277.76 -17.92 C 279.48 -17.92 280.91 -17.54 282.07 -16.8 C 283.19 -16.03 284.03 -15.02 284.59 -13.72 C 285.11 -12.43 285.39 -11.03 285.39 -9.45 L 285.39 -9.45 C 285.39 -8.93 285.36 -8.44 285.32 -7.98 C 285.25 -7.49 285.18 -7.14 285.15 -6.93 L 285.15 -6.93 L 275.17 -6.93 C 275.45 -5.88 275.94 -5.15 276.68 -4.76 C 277.41 -4.34 278.25 -4.13 279.23 -4.13 L 279.23 -4.13 C 280.35 -4.13 281.54 -4.48 282.8 -5.18 L 282.8 -5.18 L 284.76 -1.61 C 283.82 -0.95 282.77 -0.46 281.61 -0.11 C 280.46 0.25 279.37 0.42 278.39 0.42 Z M 275.1 -10.85 L 275.1 -10.85 L 280.28 -10.85 C 280.28 -11.52 280.11 -12.11 279.79 -12.64 C 279.44 -13.13 278.81 -13.37 277.9 -13.37 L 277.9 -13.37 C 277.24 -13.37 276.68 -13.16 276.15 -12.78 C 275.63 -12.39 275.28 -11.73 275.1 -10.85 Z M 294.7 6.16 L 288.68 6.16 L 288.68 -17.5 L 293.58 -17.5 L 294 -15.89 L 294.14 -15.89 C 294.81 -16.49 295.54 -16.98 296.38 -17.36 C 297.19 -17.75 298.03 -17.92 298.9 -17.92 L 298.9 -17.92 C 300.27 -17.92 301.46 -17.57 302.51 -16.84 C 303.52 -16.1 304.29 -15.05 304.85 -13.72 C 305.41 -12.39 305.69 -10.82 305.69 -9.03 L 305.69 -9.03 C 305.69 -7.04 305.34 -5.32 304.64 -3.92 C 303.94 -2.49 303.03 -1.44 301.95 -0.7 C 300.83 0.04 299.64 0.42 298.41 0.42 L 298.41 0.42 C 296.98 0.42 295.65 -0.18 294.49 -1.33 L 294.49 -1.33 L 294.7 1.33 L 294.7 6.16 Z M 296.94 -4.48 L 296.94 -4.48 C 297.64 -4.48 298.24 -4.8 298.76 -5.46 C 299.29 -6.13 299.53 -7.28 299.53 -8.96 L 299.53 -8.96 C 299.53 -10.4 299.32 -11.45 298.94 -12.08 C 298.52 -12.71 297.89 -13.02 297.08 -13.02 L 297.08 -13.02 C 296.63 -13.02 296.24 -12.92 295.86 -12.74 C 295.47 -12.57 295.09 -12.22 294.7 -11.76 L 294.7 -11.76 L 294.7 -5.32 C 295.05 -5.01 295.4 -4.8 295.82 -4.69 C 296.21 -4.55 296.56 -4.48 296.94 -4.48 Z M 315 0 L 308.98 0 L 308.98 -17.5 L 313.88 -17.5 L 314.3 -14.49 L 314.44 -14.49 C 315.11 -15.68 315.88 -16.56 316.79 -17.12 C 317.66 -17.64 318.54 -17.92 319.41 -17.92 L 319.41 -17.92 C 319.94 -17.92 320.39 -17.89 320.74 -17.85 C 321.06 -17.78 321.34 -17.68 321.58 -17.57 L 321.58 -17.57 L 320.6 -12.39 C 320.29 -12.46 320.01 -12.53 319.69 -12.6 C 319.38 -12.64 319.03 -12.67 318.64 -12.67 L 318.64 -12.67 C 318.01 -12.67 317.35 -12.46 316.68 -12.04 C 315.98 -11.59 315.42 -10.82 315 -9.73 L 315 -9.73 L 315 0 Z M 331.73 0.42 L 331.73 0.42 C 330.02 0.42 328.51 0.07 327.15 -0.67 C 325.78 -1.4 324.7 -2.45 323.89 -3.82 C 323.09 -5.18 322.7 -6.83 322.7 -8.75 L 322.7 -8.75 C 322.7 -10.64 323.12 -12.29 323.93 -13.65 C 324.73 -15.02 325.75 -16.07 327.04 -16.8 C 328.34 -17.54 329.67 -17.92 331.1 -17.92 L 331.1 -17.92 C 332.82 -17.92 334.25 -17.54 335.41 -16.8 C 336.53 -16.03 337.37 -15.02 337.93 -13.72 C 338.45 -12.43 338.73 -11.03 338.73 -9.45 L 338.73 -9.45 C 338.73 -8.93 338.7 -8.44 338.66 -7.98 C 338.59 -7.49 338.52 -7.14 338.49 -6.93 L 338.49 -6.93 L 328.51 -6.93 C 328.79 -5.88 329.28 -5.15 330.02 -4.76 C 330.75 -4.34 331.59 -4.13 332.57 -4.13 L 332.57 -4.13 C 333.69 -4.13 334.88 -4.48 336.14 -5.18 L 336.14 -5.18 L 338.1 -1.61 C 337.16 -0.95 336.11 -0.46 334.95 -0.11 C 333.8 0.25 332.71 0.42 331.73 0.42 Z M 328.44 -10.85 L 328.44 -10.85 L 333.62 -10.85 C 333.62 -11.52 333.45 -12.11 333.13 -12.64 C 332.78 -13.13 332.15 -13.37 331.24 -13.37 L 331.24 -13.37 C 330.58 -13.37 330.02 -13.16 329.49 -12.78 C 328.97 -12.39 328.62 -11.73 328.44 -10.85 Z M 348.04 0 L 342.02 0 L 342.02 -17.5 L 346.92 -17.5 L 347.34 -15.4 L 347.48 -15.4 C 348.18 -16.07 348.99 -16.66 349.9 -17.19 C 350.77 -17.68 351.82 -17.92 353.01 -17.92 L 353.01 -17.92 C 354.94 -17.92 356.34 -17.29 357.21 -16 C 358.05 -14.7 358.47 -12.95 358.47 -10.78 L 358.47 -10.78 L 358.47 0 L 352.45 0 L 352.45 -10.01 C 352.45 -11.13 352.31 -11.87 352.03 -12.25 C 351.75 -12.64 351.3 -12.81 350.7 -12.81 L 350.7 -12.81 C 350.14 -12.81 349.69 -12.71 349.3 -12.46 C 348.92 -12.22 348.5 -11.9 348.04 -11.48 L 348.04 -11.48 L 348.04 0 Z M 366.94 0.42 L 366.94 0.42 C 365.86 0.42 364.91 0.18 364.14 -0.35 C 363.34 -0.84 362.74 -1.51 362.32 -2.31 C 361.9 -3.12 361.69 -4.03 361.69 -4.97 L 361.69 -4.97 C 361.69 -6.79 362.43 -8.23 363.93 -9.28 C 365.44 -10.29 367.85 -10.99 371.21 -11.34 L 371.21 -11.34 C 371.07 -12.57 370.27 -13.16 368.76 -13.16 L 368.76 -13.16 C 368.13 -13.16 367.47 -13.06 366.77 -12.81 C 366.07 -12.57 365.26 -12.18 364.35 -11.69 L 364.35 -11.69 L 362.25 -15.61 C 363.48 -16.35 364.74 -16.94 366.03 -17.33 C 367.29 -17.71 368.59 -17.92 369.95 -17.92 L 369.95 -17.92 C 372.23 -17.92 374.01 -17.29 375.31 -16 C 376.6 -14.7 377.23 -12.6 377.23 -9.73 L 377.23 -9.73 L 377.23 0 L 372.33 0 L 371.91 -1.68 L 371.77 -1.68 C 371.07 -1.05 370.34 -0.56 369.57 -0.18 C 368.76 0.21 367.89 0.42 366.94 0.42 Z M 369.04 -4.2 L 369.04 -4.2 C 369.53 -4.2 369.95 -4.31 370.27 -4.55 C 370.58 -4.76 370.9 -5.04 371.21 -5.39 L 371.21 -5.39 L 371.21 -7.77 C 369.78 -7.56 368.8 -7.25 368.27 -6.83 C 367.71 -6.41 367.43 -5.95 367.43 -5.46 L 367.43 -5.46 C 367.43 -4.62 367.96 -4.2 369.04 -4.2 Z M 387.52 0.42 L 387.52 0.42 C 385.35 0.42 383.64 -0.42 382.34 -2.07 C 381.05 -3.71 380.38 -5.92 380.38 -8.75 L 380.38 -8.75 C 380.38 -10.68 380.73 -12.32 381.43 -13.69 C 382.1 -15.05 383.01 -16.1 384.09 -16.84 C 385.18 -17.57 386.33 -17.92 387.52 -17.92 L 387.52 -17.92 C 388.47 -17.92 389.27 -17.78 389.9 -17.47 C 390.5 -17.15 391.06 -16.7 391.58 -16.17 L 391.58 -16.17 L 391.37 -18.69 L 391.37 -24.36 L 397.39 -24.36 L 397.39 0 L 392.49 0 L 392.07 -1.61 L 391.93 -1.61 C 391.34 -1.02 390.67 -0.56 389.87 -0.18 C 389.06 0.21 388.29 0.42 387.52 0.42 Z M 389.13 -4.48 L 389.13 -4.48 C 389.59 -4.48 390.01 -4.59 390.39 -4.76 C 390.74 -4.94 391.06 -5.25 391.37 -5.74 L 391.37 -5.74 L 391.37 -12.18 C 391.02 -12.5 390.64 -12.74 390.22 -12.85 C 389.8 -12.95 389.38 -13.02 388.99 -13.02 L 388.99 -13.02 C 388.36 -13.02 387.8 -12.71 387.31 -12.08 C 386.79 -11.45 386.54 -10.36 386.54 -8.82 L 386.54 -8.82 C 386.54 -7.25 386.79 -6.16 387.24 -5.5 C 387.7 -4.83 388.33 -4.48 389.13 -4.48 Z" stroke-linecap="round" />
</g>
</g>
</g>
</svg>